<svg width="30" height="30" viewBox="0 0 30 30" fill="none" xmlns="http://www.w3.org/2000/svg">
<path d="M15 20C17.7575 20 20 17.7575 20 15C20 12.2425 17.7575 10 15 10C12.2425 10 10 12.2425 10 15C10 17.7575 12.2425 20 15 20ZM15 12.5C16.355 12.5 17.5 13.645 17.5 15C17.5 16.355 16.355 17.5 15 17.5C13.645 17.5 12.5 16.355 12.5 15C12.5 13.645 13.645 12.5 15 12.5Z" fill="white"/>
<path d="M3.55622 20.17L4.80622 22.3325C5.46997 23.4787 7.06747 23.9088 8.21872 23.245L8.87997 22.8625C9.60315 23.4314 10.4005 23.899 11.25 24.2525V25C11.25 26.3787 12.3712 27.5 13.75 27.5H16.25C17.6287 27.5 18.75 26.3787 18.75 25V24.2525C19.5992 23.899 20.3964 23.4318 21.12 22.8638L21.7812 23.2463C22.935 23.9088 24.5287 23.4812 25.195 22.3325L26.4437 20.1712C26.775 19.5971 26.8648 18.915 26.6935 18.2747C26.5222 17.6344 26.1037 17.0882 25.53 16.7562L24.8987 16.3912C25.0329 15.4694 25.0329 14.5331 24.8987 13.6112L25.53 13.2463C26.1034 12.914 26.5217 12.3679 26.693 11.7277C26.8643 11.0875 26.7747 10.4055 26.4437 9.83125L25.195 7.67C24.5312 6.52 22.935 6.08875 21.7812 6.755L21.12 7.1375C20.3968 6.56863 19.5995 6.101 18.75 5.7475V5C18.75 3.62125 17.6287 2.5 16.25 2.5H13.75C12.3712 2.5 11.25 3.62125 11.25 5V5.7475C10.4008 6.10105 9.6035 6.56823 8.87997 7.13625L8.21872 6.75375C7.06372 6.09 5.46872 6.52 4.80497 7.66875L3.55622 9.83C3.22495 10.4041 3.13511 11.0863 3.30644 11.7266C3.47777 12.3669 3.89626 12.913 4.46997 13.245L5.10122 13.61C4.96651 14.5314 4.96651 15.4674 5.10122 16.3888L4.46997 16.7537C3.89642 17.0862 3.47813 17.6325 3.30684 18.273C3.13554 18.9134 3.22523 19.5956 3.55622 20.17ZM7.71372 16.7225C7.57258 16.1592 7.5008 15.5807 7.49997 15C7.49997 14.4225 7.57247 13.8425 7.71247 13.2775C7.7784 13.0142 7.75671 12.7365 7.6507 12.4866C7.54469 12.2367 7.36013 12.0281 7.12497 11.8925L5.72122 11.08L6.96872 8.91875L8.39997 9.74625C8.63338 9.88131 8.9043 9.93702 9.17206 9.90501C9.43982 9.87301 9.68997 9.75502 9.88497 9.56875C10.7306 8.76444 11.7504 8.16602 12.865 7.82C13.121 7.74183 13.3452 7.58354 13.5045 7.36841C13.6638 7.15329 13.7499 6.8927 13.75 6.625V5H16.25V6.625C16.2501 6.8927 16.3361 7.15329 16.4955 7.36841C16.6548 7.58354 16.8789 7.74183 17.135 7.82C18.2493 8.16651 19.269 8.76488 20.115 9.56875C20.3102 9.75466 20.5603 9.8724 20.828 9.9044C21.0956 9.93639 21.3665 9.88091 21.6 9.74625L23.03 8.92L24.28 11.0812L22.875 11.8925C22.64 12.0283 22.4555 12.2369 22.3495 12.4867C22.2435 12.7366 22.2218 13.0142 22.2875 13.2775C22.4275 13.8425 22.5 14.4225 22.5 15C22.5 15.5763 22.4275 16.1562 22.2862 16.7225C22.2206 16.986 22.2426 17.2636 22.3488 17.5135C22.455 17.7634 22.6397 17.9719 22.875 18.1075L24.2787 18.9188L23.0312 21.08L21.6 20.2537C21.3666 20.1185 21.0957 20.0627 20.8279 20.0947C20.56 20.1267 20.3099 20.2448 20.115 20.4312C19.2693 21.2356 18.2496 21.834 17.135 22.18C16.8789 22.2582 16.6548 22.4165 16.4955 22.6316C16.3361 22.8467 16.2501 23.1073 16.25 23.375L16.2525 25H13.75V23.375C13.7499 23.1073 13.6638 22.8467 13.5045 22.6316C13.3452 22.4165 13.121 22.2582 12.865 22.18C11.7506 21.8335 10.7309 21.2351 9.88497 20.4312C9.69035 20.2443 9.44004 20.1259 9.17203 20.0941C8.90402 20.0623 8.63296 20.1188 8.39997 20.255L6.96997 21.0825L5.71997 18.9212L7.12497 18.1075C7.36021 17.9719 7.54491 17.7634 7.65113 17.5135C7.75735 17.2636 7.77933 16.986 7.71372 16.7225Z" fill="white"/>
</svg>
