<svg width="50" height="50" viewBox="0 0 50 50" fill="none" xmlns="http://www.w3.org/2000/svg">
<g clip-path="url(#clip0_15_9)">
<path d="M22.0407 35.2374C22.1706 34.9782 22.37 34.7602 22.6167 34.6079C22.8634 34.4556 23.1476 34.3749 23.4376 34.3749H26.5626C26.81 34.3751 27.0539 34.434 27.2741 34.5469C27.4943 34.6598 27.6845 34.8233 27.8292 35.0241C27.9738 35.2249 28.0687 35.4571 28.106 35.7018C28.1433 35.9464 28.122 36.1964 28.0438 36.4311L27.1688 39.0624H29.6876C29.9816 39.0628 30.2695 39.1462 30.5183 39.3029C30.767 39.4596 30.9665 39.6834 31.0938 39.9484C31.2211 40.2134 31.271 40.509 31.2379 40.8011C31.2047 41.0933 31.0898 41.3701 30.9063 41.5999L24.6563 49.4124C24.4333 49.6894 24.1225 49.882 23.7752 49.9585C23.4279 50.035 23.0649 49.9907 22.7462 49.833C22.4275 49.6753 22.1721 49.4135 22.0222 49.091C21.8723 48.7685 21.837 48.4046 21.9219 48.0593L23.0001 43.7499H20.3126C20.0461 43.7499 19.7841 43.6817 19.5514 43.5519C19.3187 43.4221 19.1231 43.2349 18.9831 43.0082C18.8431 42.7815 18.7634 42.5228 18.7516 42.2566C18.7399 41.9904 18.7963 41.7256 18.9157 41.4874L22.0407 35.2374ZM41.8907 12.5843C41.2417 9.31289 39.5633 6.33491 37.1007 4.08575C34.6381 1.83659 31.5206 0.434211 28.2039 0.0836575C24.8873 -0.266896 21.5455 0.452762 18.6671 2.13741C15.7888 3.82206 13.5248 6.38334 12.2063 9.44676C10.7277 9.27642 9.22984 9.40966 7.8045 9.83834C6.37915 10.267 5.0563 10.9821 3.91693 11.9398C2.77756 12.8975 1.84565 14.0777 1.17826 15.4081C0.510861 16.7385 0.122028 18.1911 0.035562 19.677C-0.0509041 21.1629 0.166816 22.6508 0.675393 24.0496C1.18397 25.4485 1.9727 26.7288 2.9933 27.8122C4.01389 28.8956 5.24487 29.7593 6.61088 30.3504C7.97688 30.9415 9.44915 31.2476 10.9376 31.2499H40.6251C43.0035 31.2526 45.2941 30.3512 47.0328 28.7282C48.7715 27.1053 49.8284 24.8821 49.9893 22.5091C50.1502 20.1361 49.4031 17.7906 47.8994 15.9478C46.3957 14.105 44.2477 12.9026 41.8907 12.5843Z" fill="url(#paint0_linear_15_9)"/>
</g>
<defs>
<linearGradient id="paint0_linear_15_9" x1="25.0139" y1="-0.00292969" x2="25.0139" y2="49.9951" gradientUnits="userSpaceOnUse">
<stop stop-color="#DEDDDD"/>
<stop offset="0.625" stop-color="#B0B0B0"/>
<stop offset="0.677083" stop-color="#FAFF03"/>
<stop offset="1" stop-color="#FAFF03"/>
</linearGradient>
<clipPath id="clip0_15_9">
<rect width="50" height="50" fill="white"/>
</clipPath>
</defs>
</svg>
