<svg width="24" height="24" viewBox="0 0 24 24" fill="none" xmlns="http://www.w3.org/2000/svg">
<path d="M15.1485 9.38953C15.1485 9.38953 13.5335 13.9405 12.7665 14.735C12.3963 15.1084 11.8938 15.3209 11.368 15.3266C10.8422 15.3323 10.3353 15.1306 9.95706 14.7653C9.57882 14.4 9.35965 13.9005 9.34701 13.3748C9.33437 12.8491 9.52928 12.3396 9.88953 11.9565C10.6565 11.1615 15.1485 9.38953 15.1485 9.38953V9.38953Z" stroke="#D9D9D9" stroke-width="2.5" stroke-linejoin="round"/>
<path d="M19.425 19.425C20.4013 18.4509 21.1755 17.2935 21.7032 16.0193C22.2309 14.7451 22.5017 13.3792 22.5 12C22.5 6.201 17.799 1.5 12 1.5C6.201 1.5 1.5 6.201 1.5 12C1.5 14.8995 2.675 17.5245 4.575 19.425M12 2V4M19.4225 5.571L17.8685 6.8295M21.261 13.6165L19.3125 13.1665M2.7385 13.6165L4.6875 13.1665M4.5775 5.571L6.1315 6.8295" stroke="#D9D9D9" stroke-width="2.5" stroke-linecap="round" stroke-linejoin="round"/>
</svg>
